<svg width="1024" height="1024" viewBox="0 0 1024 1024" fill="none" xmlns="http://www.w3.org/2000/svg">
  <defs>
    <linearGradient id="logoBluePurple" x1="260" y1="180" x2="776" y2="820" gradientUnits="userSpaceOnUse">
      <stop stop-color="#19B5F5"/>
      <stop offset="0.42" stop-color="#3B82F6"/>
      <stop offset="1" stop-color="#8B5CF6"/>
    </linearGradient>
    <linearGradient id="logoBlueDeep" x1="304" y1="304" x2="720" y2="720" gradientUnits="userSpaceOnUse">
      <stop stop-color="#1D4ED8"/>
      <stop offset="1" stop-color="#312E81"/>
    </linearGradient>
    <linearGradient id="logoPurpleDeep" x1="558" y1="252" x2="742" y2="748" gradientUnits="userSpaceOnUse">
      <stop stop-color="#A855F7"/>
      <stop offset="1" stop-color="#4C1D95"/>
    </linearGradient>
    <filter id="softShadow" x="0" y="0" width="1024" height="1024" filterUnits="userSpaceOnUse">
      <feDropShadow dx="0" dy="28" stdDeviation="32" flood-color="#0F172A" flood-opacity="0.18"/>
    </filter>
  </defs>

  <rect width="1024" height="1024" rx="92" fill="#F8FAFC"/>

  <g filter="url(#softShadow)">
    <path d="M325 220L512 128L699 220V438C699 623 607 758 512 832C417 758 325 623 325 438V220Z" fill="url(#logoBluePurple)"/>
    <path d="M363 248L512 174L661 248V434C661 588 586 699 512 758C438 699 363 588 363 434V248Z" fill="#F8FAFC" opacity="0.08"/>
    <path d="M363 248L512 174L661 248V434C661 588 586 699 512 758C438 699 363 588 363 434V248Z" stroke="rgba(255,255,255,0.32)" stroke-width="4"/>

    <path d="M362 381H470C546 381 606 439 606 514C606 588 547 646 470 646H414V722H362V381Z" fill="url(#logoBlueDeep)"/>
    <path d="M414 433V594H468C516 594 555 558 555 514C555 469 516 433 468 433H414Z" fill="#F8FAFC"/>

    <path d="M610 360H663V740H610V360Z" fill="url(#logoPurpleDeep)"/>
    <path d="M642 360C676 386 699 424 699 470C699 531 663 577 610 596V545C636 530 645 504 645 470C645 435 635 406 610 390V360H642Z" fill="#F8FAFC" opacity="0.15"/>
    <path d="M610 360H663V740H610V360Z" stroke="rgba(255,255,255,0.12)" stroke-width="2"/>
  </g>
</svg>